<?xml version="1.0" encoding="utf-8"?>
<!-- Generator: Adobe Illustrator 21.1.0, SVG Export Plug-In . SVG Version: 6.00 Build 0)  -->
<svg version="1.1" id="Layer_1" xmlns="http://www.w3.org/2000/svg" xmlns:xlink="http://www.w3.org/1999/xlink" x="0px" y="0px"
	 viewBox="0 0 209.6 219" style="enable-background:new 0 0 209.6 219;" xml:space="preserve">
<style type="text/css">
	.st0{fill:#2A2A2C;}
</style>
<g>
	<g>
		<g>
			<g>
				<polygon class="st0" points="106.1,201.4 104.1,201.4 99.8,151.4 101.8,151.2 105.1,189.8 108.5,151.2 110.5,151.4 				"/>
			</g>
			<path class="st0" d="M183.1,139.4h-156V24.5h156V139.4z M29.1,137.4h152V26.5h-152V137.4z"/>
		</g>
		<polygon class="st0" points="149.2,114.4 53.7,114.4 53.7,61 55.7,61 55.7,112.4 149.2,112.4 		"/>
		<polygon class="st0" points="150.2,51.6 147.1,46.3 141.8,49.5 140.8,47.7 147.8,43.6 152,50.6 		"/>
		<path class="st0" d="M58.7,109.4l0-2c0.2,0,18.2-0.1,38-7.8c18.1-7,41.5-22.1,49.7-53.8l1.9,0.5c-8.4,32.5-32.3,48-50.9,55.2
			C77.3,109.3,58.9,109.4,58.7,109.4z"/>
		<path class="st0" d="M153.2,118.4c-2.8,0-5-2.2-5-5s2.2-5,5-5s5,2.2,5,5S156,118.4,153.2,118.4z M153.2,110.4c-1.7,0-3,1.3-3,3
			c0,1.7,1.3,3,3,3c1.6,0,3-1.3,3-3C156.2,111.7,154.9,110.4,153.2,110.4z"/>
		<path class="st0" d="M54.7,62c-2.8,0-5-2.2-5-5s2.2-5,5-5s5,2.2,5,5S57.5,62,54.7,62z M54.7,54c-1.6,0-3,1.3-3,3c0,1.7,1.3,3,3,3
			s3-1.3,3-3C57.7,55.4,56.4,54,54.7,54z"/>
	</g>
	<path class="st0" d="M125.7,200.3l-20.5-58.6l-20.5,58.6l-1.9-0.5l11.1-62.1h10.6l0.7-2l0.7,2h10.6l11.1,62.1L125.7,200.3z
		 M106.5,139.6l16.9,48.2l-8.6-48.2H106.5z M95.5,139.6l-8.6,48.2l16.9-48.2H95.5z"/>
</g>
</svg>
