<?xml version="1.0" encoding="utf-8"?>
<!-- Generator: Adobe Illustrator 21.1.0, SVG Export Plug-In . SVG Version: 6.00 Build 0)  -->
<svg version="1.1" id="Layer_1" xmlns="http://www.w3.org/2000/svg" xmlns:xlink="http://www.w3.org/1999/xlink" x="0px" y="0px"
	 viewBox="0 0 209.6 219" style="enable-background:new 0 0 209.6 219;" xml:space="preserve">
<style type="text/css">
	.st0{fill:#2A2A2C;}
</style>
<g>
	<g>
		<path class="st0" d="M72.9,101.1H52.3V79.9h20.7V101.1z M54.3,99.1h16.7V81.9H54.3V99.1z"/>
		<path class="st0" d="M101.1,101.1H80.4V60.7h20.7V101.1z M82.4,99.1h16.7V62.7H82.4V99.1z"/>
		<path class="st0" d="M129.2,101.1h-20.7V68.4h20.7V101.1z M110.5,99.1h16.7V70.4h-16.7V99.1z"/>
		<path class="st0" d="M157.3,101.1h-20.7V43.5h20.7V101.1z M138.6,99.1h16.7V45.5h-16.7V99.1z"/>
		<rect x="119.7" y="36.9" transform="matrix(0.7421 -0.6703 0.6703 0.7421 8.931 98.9645)" class="st0" width="26.8" height="2"/>
		<rect x="103.5" y="33.8" transform="matrix(0.417 -0.9089 0.9089 0.417 20.8091 120.7548)" class="st0" width="2" height="20.8"/>
		
			<rect x="63.7" y="48.5" transform="matrix(0.7735 -0.6338 0.6338 0.7735 -14.0802 59.6597)" class="st0" width="25.4" height="2"/>
		<path class="st0" d="M62.5,67.4c-3.5,0-6.4-2.9-6.4-6.4c0-3.5,2.9-6.4,6.4-6.4c3.5,0,6.4,2.9,6.4,6.4C68.9,64.5,66,67.4,62.5,67.4
			z M62.5,56.7c-2.4,0-4.4,2-4.4,4.4s2,4.4,4.4,4.4c2.4,0,4.4-2,4.4-4.4S64.9,56.7,62.5,56.7z"/>
		<path class="st0" d="M90.4,44.2c-3.5,0-6.4-2.9-6.4-6.4s2.9-6.4,6.4-6.4s6.4,2.9,6.4,6.4S93.9,44.2,90.4,44.2z M90.4,33.5
			c-2.4,0-4.4,2-4.4,4.4s2,4.4,4.4,4.4s4.4-2,4.4-4.4S92.8,33.5,90.4,33.5z"/>
		<path class="st0" d="M118.8,56.7c-3.5,0-6.4-2.9-6.4-6.4c0-3.5,2.9-6.4,6.4-6.4s6.4,2.9,6.4,6.4C125.2,53.8,122.4,56.7,118.8,56.7
			z M118.8,45.9c-2.4,0-4.4,2-4.4,4.4c0,2.4,2,4.4,4.4,4.4s4.4-2,4.4-4.4C123.2,47.9,121.3,45.9,118.8,45.9z"/>
		<path class="st0" d="M147,31.7c-3.5,0-6.4-2.9-6.4-6.4s2.9-6.4,6.4-6.4c3.5,0,6.4,2.9,6.4,6.4S150.5,31.7,147,31.7z M147,20.9
			c-2.4,0-4.4,2-4.4,4.4s2,4.4,4.4,4.4c2.4,0,4.4-2,4.4-4.4S149.4,20.9,147,20.9z"/>
	</g>
	<g>
		<g>
			<path class="st0" d="M131.4,199.2H78.1v-20.5l9.6-9.6h8l-0.2,0.8c0.8,1,3.6,3.7,9.1,3.7c5.5,0,8.3-2.8,9.1-3.7l-0.2-0.8l1.2,0
				h6.8l9.6,9.6V199.2z M80.1,197.2h49.3v-17.6l-8.5-8.5h-5.4c-1,1.2-4.3,4.5-10.7,4.5s-9.8-3.4-10.7-4.5h-5.4l-8.5,8.5V197.2z"/>
			
				<rect x="92.9" y="167.1" transform="matrix(0.2105 -0.9776 0.9776 0.2105 -89.2914 225.5964)" class="st0" width="4.2" height="2"/>
			
				<rect x="113.6" y="166.3" transform="matrix(0.9776 -0.2103 0.2103 0.9776 -32.8095 27.8539)" class="st0" width="2" height="3.9"/>
		</g>
		<path class="st0" d="M105.1,169.5c-12.3,0-22.3-10-22.3-22.3s10-22.3,22.3-22.3c12.3,0,22.3,10,22.3,22.3S117.3,169.5,105.1,169.5
			z M105.1,127c-11.2,0-20.3,9.1-20.3,20.3s9.1,20.3,20.3,20.3s20.3-9.1,20.3-20.3S116.2,127,105.1,127z"/>
	</g>
</g>
</svg>
