<?xml version="1.0" encoding="utf-8"?>
<!-- Generator: Adobe Illustrator 21.1.0, SVG Export Plug-In . SVG Version: 6.00 Build 0)  -->
<svg version="1.1" id="Layer_1" xmlns="http://www.w3.org/2000/svg" xmlns:xlink="http://www.w3.org/1999/xlink" x="0px" y="0px"
	 viewBox="0 0 100 100" style="enable-background:new 0 0 100 100;" xml:space="preserve">
<path id="Logo" d="M74.2,95.1c2,0.7,4.1,1.1,6.2,1.1v0.2l0-0.2c11.1-0.3,19.9-9.6,19.6-20.7c-0.2-7.4-4.4-14-10.9-17.4L88.9,58l0,0
	L63.2,43.4c-2.9,1.7-6.2,2.8-9.6,3.1l19.3,11l-0.3,0.1c-7.3,3.3-11.9,10.5-11.9,18.5c0,2.7,0.5,5.4,1.6,7.9c2.3-1.1,4.4-2.5,6.3-4.2
	c-0.3-1.2-0.5-2.4-0.5-3.6c0-3.3,1.3-6.5,3.6-8.9c2.3-2.4,5.4-3.7,8.7-3.7c7,0.2,12.5,6,12.3,12.9c-0.1,6.2-4.8,11.4-11,12.2
	C79.4,91.1,76.9,93.3,74.2,95.1z M6.5,60.7C2.3,64.5,0,69.9,0,75.6c-0.1,11,8.6,19.9,19.6,20.1v0.2l0-0.2c3.1,0,6.2-0.8,9-2.2
	c0.8-0.4,1.5-0.9,2.2-1.4l25.4-15.7v-0.7c0-3.2,0.7-6.3,1.9-9.3L39,78.2l0-0.3c0.1-0.8,0.1-1.5,0.1-2.3c0.1-10.1-7.4-18.7-17.4-20
	c0,0.5-0.1,1.1-0.1,1.6c0,2,0.1,4,0.5,6c6.8,1.7,11,8.6,9.3,15.4c-0.7,2.9-2.4,5.4-4.7,7.2L25,86.9c-1.7,0.9-3.5,1.3-5.4,1.3
	c-6.9-0.1-12.4-5.7-12.3-12.6c0-1.6,0.3-3.3,0.9-4.8C7.3,67.5,6.7,64.1,6.5,60.7z M31.8,54.2c2.9,1.8,5.4,4.1,7.3,6.8V37.3l0.3,0.2
	c3.3,2.7,7.4,4.2,11.7,4.3h0.3c6,0,11.7-2.8,15.3-7.6c-2-1.5-4.2-2.7-6.6-3.6c-2.3,2.4-5.4,3.8-8.8,3.8h-0.2
	c-6.7-0.2-12.1-5.7-12.1-12.4v-0.7c0.1-6.7,5.6-12.1,12.3-12.2h0.2c3.9,0.1,7.6,2.1,9.8,5.3c3.2,0.9,6.3,2.2,9.3,3.8
	c-1.5-9.4-9.5-16.4-19-16.6h-0.3c-10.5,0.1-19,8.4-19.5,18.9v0.2h0v0.5c0,0.1,0,0.1,0,0.1c0,0,0,0.1,0,0.1c0,0.1,0,0.2,0,0.2
	c0,0.1,0,0.1,0,0.2L31.8,54.2z M19.1,83.2c0.1,0,0.2,0,0.3,0h0c2.6,0,5-1.3,6.3-3.5c-11.3-13.3-10.7-33,1.4-45.5v-9.7
	c-1.7,1.3-3.4,2.7-4.9,4.2C7.7,43.5,6.4,66.8,19.1,83.2L19.1,83.2z M81.2,48.3l8.3,4.7c-1-8.8-4.8-17.1-10.9-23.6
	c-7.2-7.7-17.3-12.2-27.8-12.4c-1.8,0-3.6,0.1-5.4,0.3c-1.5,2.2-1.8,5.1-0.7,7.6c2-0.3,4-0.5,6-0.5c8.7,0.1,16.9,3.8,22.8,10.1
	C77,38.5,79.7,43.2,81.2,48.3L81.2,48.3z M34.8,95.3c4.6,2,9.6,3,14.6,3.1h0.7c10.5,0,20.5-4.2,27.8-11.7c4-4,7.1-8.8,9.1-14.1
	c-1.2-2.4-3.6-4-6.2-4.1c-1.6,4.9-4.3,9.3-8,12.9c-6,6.1-14.2,9.5-22.7,9.5c-0.2,0-0.4,0-0.6,0c-2.2,0-4.3-0.3-6.5-0.8L34.8,95.3z"
	/>
</svg>
