<?xml version="1.0" encoding="utf-8"?>
<!-- Generator: Adobe Illustrator 21.1.0, SVG Export Plug-In . SVG Version: 6.00 Build 0)  -->
<svg version="1.1" id="Layer_1" xmlns="http://www.w3.org/2000/svg" xmlns:xlink="http://www.w3.org/1999/xlink" x="0px" y="0px"
	 viewBox="0 0 500 500" style="enable-background:new 0 0 500 500;" xml:space="preserve">
<g>
	<polygon points="422.4,226.3 420.4,226.3 420.4,152.7 391.9,152.7 351.3,177.9 350.3,176.2 391.3,150.7 422.4,150.7 	"/>
	<polygon points="422.6,332.5 391.5,332.5 391.2,332.4 350.4,307.1 351.5,305.4 392,330.5 420.6,330.5 420.6,256.7 422.6,256.7 	"/>
	<polygon points="254.4,357.6 193.8,357.6 193.8,337.5 195.8,337.5 195.8,355.6 252.8,355.6 256.8,336 258.7,336.4 	"/>
	<path d="M219.1,339.8c-85.8,0-158.3-45-158.3-98.2c0-53.2,72.5-98.2,158.3-98.2c51.8,0,101.9,14.1,148.9,42
		c39.5,23.4,62.7,48.6,65.2,51.4l-1.5,1.3c-2.5-2.8-25.4-27.7-64.7-51c-46.7-27.7-96.5-41.7-147.9-41.7
		c-39.9,0-79.8,10.3-109.3,28.3c-30.3,18.4-46.9,42.5-46.9,67.9s16.7,49.4,46.9,67.9c29.6,18,69.4,28.3,109.3,28.3
		c129.2,0,209.3-88.9,212.6-92.7l1.5,1.3C429.8,250.2,349.2,339.8,219.1,339.8z"/>
	<path d="M203.2,291.8c-64.9,0-112.7-16.7-142.2-49.6l1.5-1.3c29.1,32.5,76.4,48.9,140.7,48.9c85.2,0,169.5-27.3,205.5-38.9l1.7-0.6
		l0.6,1.9l-1.7,0.6C373.2,264.5,288.7,291.8,203.2,291.8z"/>
	<rect x="61.8" y="240.4" width="286.5" height="2"/>
	<path d="M62.6,242l-1.5-1.3c5.8-7,19.4-20.5,44.8-31.6c27-11.8,59.7-17.8,97.4-17.8c85.4,0,166.7,26.3,205.7,38.9l1.9,0.6l-0.6,1.9
		l-1.9-0.6c-38.9-12.6-120-38.8-205.1-38.8C110.2,193.3,72,230.6,62.6,242z"/>
	<path d="M394,253.6c-22.7,0-46.7-4.2-46.7-12c0-7.8,24.1-12,46.7-12c24.5,0,46.7,8.7,46.7,12C440.8,245,418.6,253.6,394,253.6z
		 M394,231.6c-26.4,0-44.7,5.3-44.7,10c0,4.7,18.4,10,44.7,10c23.7,0,42-7.9,44.5-10C436,239.4,417.8,231.6,394,231.6z"/>
</g>
</svg>
